<svg width="40" height="40" viewBox="0 0 40 40" fill="none" xmlns="http://www.w3.org/2000/svg">
<path d="M20.804 8.10882V26.819C20.804 27.0611 20.7079 27.2932 20.5367 27.4644C20.3656 27.6356 20.1334 27.7317 19.8914 27.7317H4.37558C4.13352 27.7317 3.90137 27.6356 3.73021 27.4644C3.55905 27.2932 3.46289 27.0611 3.46289 26.819V4.9144C3.46289 4.67234 3.55905 4.44019 3.73021 4.26903C3.90137 4.09787 4.13352 4.00171 4.37558 4.00171H16.6969L20.804 8.10882Z" fill="#3484FF"/>
<path d="M20.8063 8.10882H17.6119C17.3699 8.10882 17.1377 8.01267 16.9665 7.8415C16.7954 7.67034 16.6992 7.43819 16.6992 7.19613V4.00171L20.8063 8.10882Z" fill="#0668FF"/>
<path d="M10.7639 22.712H6.20049C6.07946 22.712 5.96338 22.6639 5.8778 22.5783C5.79222 22.4928 5.74414 22.3767 5.74414 22.2557C5.74414 22.1346 5.79222 22.0186 5.8778 21.933C5.96338 21.8474 6.07946 21.7993 6.20049 21.7993H10.7639C10.885 21.7993 11.0011 21.8474 11.0866 21.933C11.1722 22.0186 11.2203 22.1346 11.2203 22.2557C11.2203 22.3767 11.1722 22.4928 11.0866 22.5783C11.0011 22.6639 10.885 22.712 10.7639 22.712Z" fill="white"/>
<path d="M15.7838 15.8668H6.20049C6.07946 15.8668 5.96338 15.8187 5.8778 15.7331C5.79222 15.6476 5.74414 15.5315 5.74414 15.4104C5.74414 15.2894 5.79222 15.1733 5.8778 15.0878C5.96338 15.0022 6.07946 14.9541 6.20049 14.9541H15.7838C15.9048 14.9541 16.0209 15.0022 16.1064 15.0878C16.192 15.1733 16.2401 15.2894 16.2401 15.4104C16.2401 15.5315 16.192 15.6476 16.1064 15.7331C16.0209 15.8187 15.9048 15.8668 15.7838 15.8668Z" fill="white"/>
<path d="M16.0396 13.9127H6.45635C6.33532 13.9127 6.21924 13.8646 6.13366 13.779C6.04808 13.6935 6 13.5774 6 13.4563C6 13.3353 6.04808 13.2192 6.13366 13.1337C6.21924 13.0481 6.33532 13 6.45635 13H16.0396C16.1606 13 16.2767 13.0481 16.3623 13.1337C16.4479 13.2192 16.496 13.3353 16.496 13.4563C16.496 13.5774 16.4479 13.6935 16.3623 13.779C16.2767 13.8646 16.1606 13.9127 16.0396 13.9127Z" fill="white"/>
<path d="M16.2401 18.1483H6.20049C6.07946 18.1483 5.96338 18.1002 5.8778 18.0146C5.79222 17.929 5.74414 17.813 5.74414 17.6919C5.74414 17.5709 5.79222 17.4548 5.8778 17.3693C5.96338 17.2837 6.07946 17.2356 6.20049 17.2356H16.2401C16.3611 17.2356 16.4772 17.2837 16.5628 17.3693C16.6484 17.4548 16.6964 17.5709 16.6964 17.6919C16.6964 17.813 16.6484 17.929 16.5628 18.0146C16.4772 18.1002 16.3611 18.1483 16.2401 18.1483Z" fill="white"/>
<path d="M17.1528 20.43H6.20049C6.07946 20.43 5.96338 20.3819 5.8778 20.2964C5.79222 20.2108 5.74414 20.0947 5.74414 19.9737C5.74414 19.8526 5.79222 19.7366 5.8778 19.651C5.96338 19.5654 6.07946 19.5173 6.20049 19.5173H17.1528C17.2738 19.5173 17.3899 19.5654 17.4755 19.651C17.5611 19.7366 17.6091 19.8526 17.6091 19.9737C17.6091 20.0947 17.5611 20.2108 17.4755 20.2964C17.3899 20.3819 17.2738 20.43 17.1528 20.43Z" fill="white"/>
<path d="M23.933 26.8683C27.2109 26.8683 29.868 24.2111 29.868 20.9333C29.868 17.6555 27.2109 14.9983 23.933 14.9983C20.6552 14.9983 17.998 17.6555 17.998 20.9333C17.998 24.2111 20.6552 26.8683 23.933 26.8683Z" fill="#00B362"/>
<path d="M21.6518 23.6726C21.5615 23.6725 21.4732 23.6458 21.3982 23.5956C21.3231 23.5454 21.2646 23.4741 21.2301 23.3907C21.1955 23.3073 21.1865 23.2155 21.2041 23.127C21.2217 23.0384 21.2652 22.9571 21.329 22.8932L25.8944 18.3279C25.9805 18.2447 26.0958 18.1987 26.2155 18.1997C26.3352 18.2008 26.4497 18.2488 26.5344 18.3334C26.619 18.4181 26.667 18.5326 26.6681 18.6523C26.6691 18.772 26.6231 18.8873 26.5399 18.9734L21.9745 23.5388C21.8889 23.6244 21.7728 23.6725 21.6518 23.6726Z" fill="white"/>
<path d="M25.7602 24.1291C25.4894 24.1291 25.2246 24.0488 24.9993 23.8983C24.7741 23.7478 24.5985 23.5339 24.4949 23.2836C24.3912 23.0334 24.3641 22.758 24.4169 22.4923C24.4698 22.2266 24.6002 21.9826 24.7918 21.791C24.9833 21.5995 25.2274 21.4691 25.493 21.4162C25.7587 21.3634 26.0341 21.3905 26.2844 21.4941C26.5346 21.5978 26.7485 21.7734 26.899 21.9986C27.0495 22.2238 27.1299 22.4886 27.1299 22.7595C27.1299 23.1228 26.9856 23.4711 26.7287 23.728C26.4719 23.9848 26.1235 24.1291 25.7602 24.1291ZM25.7602 22.303C25.6699 22.303 25.5817 22.3297 25.5066 22.3799C25.4315 22.4301 25.373 22.5014 25.3385 22.5848C25.3039 22.6682 25.2949 22.76 25.3125 22.8486C25.3301 22.9371 25.3736 23.0185 25.4374 23.0823C25.5013 23.1462 25.5826 23.1897 25.6712 23.2073C25.7597 23.2249 25.8515 23.2158 25.935 23.1813C26.0184 23.1467 26.0897 23.0882 26.1398 23.0131C26.19 22.9381 26.2168 22.8498 26.2168 22.7595C26.2168 22.6384 26.1687 22.5223 26.0831 22.4367C25.9974 22.3511 25.8813 22.303 25.7602 22.303Z" fill="white"/>
<path d="M22.1059 20.477C21.8351 20.477 21.5703 20.3967 21.345 20.2462C21.1198 20.0957 20.9442 19.8818 20.8406 19.6315C20.7369 19.3813 20.7098 19.1059 20.7626 18.8402C20.8155 18.5745 20.9459 18.3305 21.1375 18.1389C21.329 17.9474 21.5731 17.817 21.8387 17.7641C22.1044 17.7113 22.3798 17.7384 22.6301 17.842C22.8803 17.9457 23.0942 18.1213 23.2447 18.3465C23.3952 18.5717 23.4756 18.8365 23.4756 19.1074C23.4756 19.4707 23.3313 19.819 23.0744 20.0759C22.8176 20.3327 22.4692 20.477 22.1059 20.477ZM22.1059 18.6509C22.0156 18.6509 21.9274 18.6776 21.8523 18.7278C21.7772 18.778 21.7187 18.8493 21.6842 18.9327C21.6496 19.0161 21.6406 19.1079 21.6582 19.1965C21.6758 19.285 21.7193 19.3664 21.7831 19.4302C21.847 19.4941 21.9283 19.5376 22.0169 19.5552C22.1054 19.5728 22.1972 19.5637 22.2807 19.5292C22.3641 19.4946 22.4354 19.4361 22.4855 19.361C22.5357 19.286 22.5625 19.1977 22.5625 19.1074C22.5625 18.9863 22.5144 18.8702 22.4288 18.7846C22.3431 18.699 22.227 18.6509 22.1059 18.6509Z" fill="white"/>
</svg>
