<?xml version="1.0" encoding="UTF-8"?>
<svg width="24px" height="16px" viewBox="0 0 24 16" version="1.1" xmlns="http://www.w3.org/2000/svg" xmlns:xlink="http://www.w3.org/1999/xlink">
    <!-- Generator: sketchtool 61.2 (101010) - https://sketch.com -->
    <title>7084E278-6CC1-42B2-83A4-297A979DD090@1</title>
    <desc>Created with sketchtool.</desc>
    <g id="Page-1" stroke="none" stroke-width="1" fill="none" fill-rule="evenodd">
        <g id="Home-Page---Banner" transform="translate(-64.000000, -28.000000)">
            <g id="Navigation">
                <g id="round-menu-24px" transform="translate(60.000000, 20.000000)">
                    <polygon id="Path" points="0 0 32 0 32 32 0 32"></polygon>
                    <path d="M5.33333333,24 L26.6666667,24 C27.4,24 28,23.4 28,22.6666667 C28,21.9333333 27.4,21.3333333 26.6666667,21.3333333 L5.33333333,21.3333333 C4.6,21.3333333 4,21.9333333 4,22.6666667 C4,23.4 4.6,24 5.33333333,24 Z M5.33333333,17.3333333 L26.6666667,17.3333333 C27.4,17.3333333 28,16.7333333 28,16 C28,15.2666667 27.4,14.6666667 26.6666667,14.6666667 L5.33333333,14.6666667 C4.6,14.6666667 4,15.2666667 4,16 C4,16.7333333 4.6,17.3333333 5.33333333,17.3333333 Z M4,9.33333333 C4,10.0666667 4.6,10.6666667 5.33333333,10.6666667 L26.6666667,10.6666667 C27.4,10.6666667 28,10.0666667 28,9.33333333 C28,8.6 27.4,8 26.6666667,8 L5.33333333,8 C4.6,8 4,8.6 4,9.33333333 Z" id="Shape" fill="#154F9C" fill-rule="nonzero"></path>
                </g>
            </g>
        </g>
    </g>
</svg>