<svg width="32" height="30" viewBox="0 0 32 30" fill="none" xmlns="http://www.w3.org/2000/svg">
<g id="Group">
<g id="Group_2">
<g id="Group_3">
<g id="Group_4">
<g id="Group_5">
<g id="Group_6">
<path id="Vector" d="M28.2596 12.215L28.2604 12.2174C28.3098 12.085 28.419 11.9784 28.5633 11.9395L31.1742 11.2352C31.4395 11.1636 31.7065 11.3445 31.7383 11.6176L31.9146 13.1302C31.9404 13.3516 31.8001 13.5586 31.5849 13.6166L28.3296 14.4928C28.0814 14.5596 27.8205 14.443 27.7047 14.2137C27.6367 14.0792 27.6279 13.9225 27.6802 13.7812L28.2596 12.215Z" fill="#377DE2"/>
</g>
</g>
</g>
<g id="Group_7">
<g id="Group_8">
<g id="Group_9">
<path id="Vector_2" d="M3.8416 12.2147L3.84086 12.2171C3.79141 12.0848 3.68226 11.9782 3.53793 11.9393L0.927056 11.2349C0.661692 11.1634 0.394695 11.3442 0.362917 11.6173L0.186651 13.1299C0.160813 13.3513 0.301143 13.5583 0.516314 13.6164L3.77166 14.4925C4.0198 14.5593 4.28071 14.4428 4.39653 14.2135C4.46454 14.079 4.47331 13.9223 4.42103 13.7809L3.8416 12.2147Z" fill="#377DE2"/>
</g>
</g>
</g>
</g>
<g id="Group_10">
<g id="Group_11">
<g id="Group_12">
<path id="Vector_3" d="M6.27184 29.0513H2.14275C1.33789 29.0513 0.685547 28.3988 0.685547 27.594V20.6048C0.685547 19.8 1.33804 19.1475 2.14275 19.1475H6.2717C7.07655 19.1475 7.72904 19.8 7.72904 20.6048V27.594C7.72904 28.3988 7.0767 29.0513 6.27184 29.0513Z" fill="#58595B"/>
</g>
</g>
<g id="Group_13">
<g id="Group_14">
<path id="Vector_4" d="M29.9535 29.052H25.8245C25.0197 29.052 24.3672 28.3995 24.3672 27.5947V20.6055C24.3672 19.8007 25.0197 19.1482 25.8245 19.1482H29.9535C30.7583 19.1482 31.4107 19.8007 31.4107 20.6055V27.5947C31.4107 28.3995 30.7582 29.052 29.9535 29.052Z" fill="#58595B"/>
</g>
</g>
</g>
<g id="Group_15">
<g id="Group_16">
<path id="Vector_5" d="M29.4796 27.1485H2.61324C1.95481 27.1485 1.39735 26.6625 1.30781 26.0103L0.195715 17.9214C-0.0626689 16.042 1.3978 14.3669 3.29484 14.3669H28.798C30.695 14.3669 32.1555 16.0418 31.8971 17.9214L30.785 26.0103C30.6955 26.6625 30.138 27.1485 29.4796 27.1485Z" fill="#478CF7"/>
</g>
</g>
<g id="Group_17">
<path id="Vector_6" d="M1.07987 18.0967C0.932858 18.0967 0.806487 17.9868 0.785846 17.8413C0.739812 17.4534 1.30959 17.3743 1.37389 17.7581L1.37538 17.7596C1.40107 17.9342 1.25777 18.1013 1.07987 18.0967ZM1.22985 16.9325C1.19124 16.9325 1.15248 16.9251 1.11699 16.9102C1.04275 16.879 0.986168 16.8226 0.956617 16.7484C0.925433 16.6756 0.925433 16.5954 0.956617 16.5212C1.06205 16.2687 1.20609 16.0356 1.38577 15.8292C1.86839 15.2782 2.56484 14.9604 3.29693 14.9604L22.9252 14.9619C22.9297 14.9604 22.9343 14.9604 22.9386 14.9604H24.1266C24.2901 14.9604 24.4235 15.0941 24.4235 15.2574C24.4235 15.4223 24.2901 15.5544 24.1266 15.5544H3.29693C2.73561 15.5544 2.2025 15.798 1.83423 16.2197C1.69598 16.3786 1.58461 16.5568 1.50442 16.7498V16.7513C1.45705 16.8612 1.35013 16.9325 1.22985 16.9325Z" fill="#5E9CF7"/>
</g>
<g id="Group_18">
<g id="Group_19">
<path id="Vector_7" d="M0.693359 21.5544L1.30591 26.0104C1.3956 26.6627 1.95291 27.1486 2.61134 27.1486H29.4777C30.1361 27.1486 30.6936 26.6626 30.7831 26.0104L31.3957 21.5544H0.693359Z" fill="#2266D3"/>
</g>
</g>
<g id="Group_20">
<g id="Group_21">
<path id="Vector_8" d="M24.1356 6.85449H7.94971C6.97141 6.85449 6.09706 7.46496 5.75998 8.38341L3.56445 14.3672H28.5207L26.3251 8.38341C25.9882 7.46511 25.1138 6.85449 24.1356 6.85449Z" fill="#478CF7"/>
</g>
</g>
<g id="Group_22">
<g id="Group_23">
<path id="Vector_9" d="M8.94083 19.9144H3.01299C2.72921 19.9144 2.48924 19.7046 2.45122 19.4235L2.33139 18.5366C2.28535 18.1964 2.54997 17.8938 2.89315 17.8938H8.82099C9.10477 17.8938 9.34474 18.1036 9.38275 18.3847L9.50259 19.2716C9.54862 19.6118 9.28415 19.9144 8.94083 19.9144Z" fill="#E6E7E8"/>
</g>
</g>
<g id="Group_24">
<path id="Vector_10" d="M9.50139 19.2718L9.38155 18.385C9.34354 18.1037 9.10356 17.894 8.81979 17.894H8.67307L8.7589 18.5293C8.80494 18.8695 8.54047 19.1722 8.19714 19.1722H2.41602L2.45002 19.4237C2.48804 19.705 2.72801 19.9146 3.01178 19.9146H8.93963C9.28295 19.9145 9.54742 19.6119 9.50139 19.2718Z" fill="#D1D3D4"/>
</g>
<g id="Group_25">
<g id="Group_26">
<path id="Vector_11" d="M23.1588 19.9144H29.0866C29.3704 19.9144 29.6104 19.7046 29.6484 19.4235L29.7682 18.5366C29.8143 18.1964 29.5496 17.8938 29.2065 17.8938H23.2786C22.9948 17.8938 22.7549 18.1036 22.7168 18.3847L22.597 19.2716C22.551 19.6118 22.8155 19.9144 23.1588 19.9144Z" fill="#E6E7E8"/>
</g>
</g>
<g id="Group_27">
<path id="Vector_12" d="M29.2027 17.894H29.0085L28.9021 18.6812C28.8641 18.9625 28.6242 19.1722 28.3404 19.1722H22.6066L22.5931 19.2718C22.5471 19.612 22.8117 19.9146 23.1549 19.9146H29.0827C29.3665 19.9146 29.6065 19.7048 29.6445 19.4237L29.7643 18.5369C29.8105 18.1968 29.546 17.894 29.2027 17.894Z" fill="#D1D3D4"/>
</g>
<g id="Group_28">
<g id="Group_29">
<path id="Vector_13" d="M26.8262 14.3667H5.26953L7.08015 9.03594C7.27335 8.4675 7.71973 8.09863 8.21437 8.09863H23.8817C24.3763 8.09863 24.8225 8.46765 25.0157 9.03594L26.8262 14.3667Z" fill="#F1F2F2"/>
</g>
</g>
<g id="Group_30">
<g id="Group_31">
<g id="Group_32">
<path id="Vector_14" d="M21.1353 25.6695H10.9681C10.4633 25.6695 10.1418 25.1302 10.3819 24.6862L11.087 23.3824C11.2034 23.1671 11.4284 23.033 11.6731 23.033H20.4303C20.675 23.033 20.9 23.1671 21.0164 23.3824L21.7214 24.6862C21.9616 25.1302 21.6401 25.6695 21.1353 25.6695Z" fill="#5E9CF7"/>
</g>
</g>
<g id="Group_33">
<path id="Vector_15" d="M21.7214 24.6863L21.0164 23.3825C20.9092 23.1843 20.7099 23.0549 20.4879 23.0356L20.979 23.9437C21.2191 24.3877 20.8976 24.927 20.3928 24.927H10.3052C10.2612 25.3039 10.5526 25.6695 10.9681 25.6695H21.1352C21.6401 25.6697 21.9616 25.1303 21.7214 24.6863Z" fill="#478CF7"/>
</g>
</g>
<g id="Group_34">
<g id="Group_35">
<g id="Group_36">
<path id="Vector_16" d="M7.18607 24.0986H3.60522C3.3109 24.0986 3.07227 23.86 3.07227 23.5657C3.07227 23.2713 3.3109 23.0327 3.60522 23.0327H7.18607C7.48039 23.0327 7.71902 23.2713 7.71902 23.5657C7.71902 23.86 7.48039 24.0986 7.18607 24.0986Z" fill="#5E9CF7"/>
</g>
</g>
<g id="Group_37">
<g id="Group_38">
<path id="Vector_17" d="M28.4947 24.0986H24.9138C24.6195 24.0986 24.3809 23.86 24.3809 23.5657C24.3809 23.2713 24.6195 23.0327 24.9138 23.0327H28.4947C28.789 23.0327 29.0276 23.2713 29.0276 23.5657C29.0276 23.86 28.789 24.0986 28.4947 24.0986Z" fill="#5E9CF7"/>
</g>
</g>
</g>
</g>
<g id="Group_39">
<path id="Vector_18" d="M25.8594 0.63495L26.0199 1.3825C26.1885 2.16784 26.802 2.78124 27.5874 2.95002L28.3349 3.1105C28.5152 3.14928 28.5152 3.40631 28.3349 3.44509L27.5874 3.60556C26.802 3.77415 26.1887 4.38774 26.0199 5.17309L25.8594 5.92064C25.8206 6.1009 25.5636 6.1009 25.5248 5.92064L25.3643 5.17309C25.1957 4.38774 24.5822 3.77435 23.7968 3.60556L23.0493 3.44509C22.869 3.40631 22.869 3.14928 23.0493 3.1105L23.7968 2.95002C24.5822 2.78144 25.1955 2.16784 25.3643 1.3825L25.5248 0.63495C25.5634 0.454691 25.8206 0.454691 25.8594 0.63495Z" fill="#FFC91D"/>
<path id="Vector_19" d="M29.354 8.09661L29.4688 8.63106C29.5893 9.19261 30.0282 9.63129 30.5897 9.75199L31.1242 9.86675C31.253 9.89445 31.253 10.0783 31.1242 10.106L30.5897 10.2207C30.0282 10.3412 29.5895 10.7801 29.4688 11.3417L29.354 11.8761C29.3263 12.0049 29.1425 12.0049 29.1148 11.8761L29 11.3417C28.8795 10.7801 28.4407 10.3414 27.8791 10.2207L27.3447 10.106C27.2158 10.0783 27.2158 9.89445 27.3447 9.86675L27.8791 9.75199C28.4407 9.63148 28.8793 9.19261 29 8.63106L29.1148 8.09661C29.1423 7.9678 29.3263 7.9678 29.354 8.09661Z" fill="#FFC91D"/>
<path id="Vector_20" d="M20.604 8.09661L20.7188 8.63106C20.8393 9.19261 21.2782 9.63129 21.8397 9.75199L22.3742 9.86675C22.503 9.89445 22.503 10.0783 22.3742 10.106L21.8397 10.2207C21.2782 10.3412 20.8395 10.7801 20.7188 11.3417L20.604 11.8761C20.5763 12.0049 20.3925 12.0049 20.3648 11.8761L20.25 11.3417C20.1295 10.7801 19.6907 10.3414 19.1291 10.2207L18.5947 10.106C18.4658 10.0783 18.4658 9.89445 18.5947 9.86675L19.1291 9.75199C19.6907 9.63148 20.1293 9.19261 20.25 8.63106L20.3648 8.09661C20.3923 7.9678 20.5763 7.9678 20.604 8.09661Z" fill="#FFC91D"/>
</g>
</g>
</svg>
