<?xml version="1.0" encoding="UTF-8"?>
<svg width="16px" height="16px" viewBox="0 0 16 16" version="1.1" xmlns="http://www.w3.org/2000/svg" xmlns:xlink="http://www.w3.org/1999/xlink">
    <title>9AC3BDF9-5943-42D0-B62B-FB775EE77C34</title>
    <g id="Search" stroke="none" stroke-width="1" fill="none" fill-rule="evenodd">
        <g id="Search-Results" transform="translate(-370, -113)" fill="#72A0DD" fill-rule="nonzero">
            <g id="search-(5)" transform="translate(370, 113)">
                <path d="M7.18145983,0 C3.22384181,0 0,3.22274692 0,7.1790356 C0,11.1352941 3.22384181,14.3642831 7.18145983,14.3642831 C8.87187861,14.3642831 10.4265417,13.7721062 11.6552585,12.7888539 L14.646624,15.777631 C14.9606127,16.0785125 15.457562,16.073433 15.7653307,15.7661963 C16.0730993,15.4589597 16.0788711,14.962187 15.7783238,14.6478874 L12.7869581,11.6575423 C13.771363,10.4273537 14.3644784,8.87083148 14.3644784,7.1790356 C14.3644784,3.22274692 11.1390779,0 7.18145983,0 L7.18145983,0 Z M7.18145983,1.59569305 C10.2764134,1.59569305 12.7666933,4.08513945 12.7666933,7.1790356 C12.7666933,10.2729317 10.2764134,12.76859 7.18145983,12.76859 C4.08650627,12.76859 1.59622638,10.2729317 1.59622638,7.1790356 C1.59622638,4.08513945 4.08650627,1.59569305 7.18145983,1.59569305 Z" id="circle2017"></path>
            </g>
        </g>
    </g>
</svg>