<svg width="40" height="40" viewBox="0 0 40 40" fill="none" xmlns="http://www.w3.org/2000/svg">
<g clip-path="url(#clip0_11686_65)">
<path d="M32.4859 22.3153L33.0198 21.9724C32.8114 21.8364 32.6428 21.6356 32.5501 21.3841L32.4995 21.2463C32.4877 21.2143 32.4793 21.1823 32.4704 21.1501L32.1367 21.3645L32.4859 22.3153Z" fill="#2266D3"/>
<path d="M34.0875 22.0954L35.2725 21.659C35.7892 21.4688 36.1099 20.9514 36.0508 20.4041L36.0163 20.0857C35.9735 19.6898 35.6172 19.404 35.2215 19.4478L33.4904 19.6394C32.7158 19.7251 32.2272 20.515 32.4965 21.2462L32.5472 21.384C32.7761 22.0057 33.4658 22.3243 34.0875 22.0954Z" fill="#377DE2"/>
<path d="M6.4379 21.9123L5.90398 21.5693C6.11245 21.4333 6.28106 21.2325 6.37371 20.9811L6.42436 20.8433C6.43613 20.8113 6.44458 20.7793 6.45341 20.7471L6.78711 20.9614L6.4379 21.9123Z" fill="#2266D3"/>
<path d="M4.83437 21.6923L3.64934 21.256C3.13269 21.0658 2.81195 20.5483 2.87103 20.0011L2.90558 19.6827C2.94837 19.2867 3.30465 19.0009 3.70038 19.0447L5.4315 19.2363C6.20607 19.3221 6.69465 20.112 6.42533 20.8432L6.37469 20.981C6.14581 21.6026 5.45603 21.9212 4.83437 21.6923Z" fill="#377DE2"/>
<path d="M6.75962 35.5314C5.90594 35.5314 5.13941 35.1659 4.60156 34.5854V37.1681C4.60156 37.7662 5.08641 38.2509 5.68432 38.2509H8.93279C9.5309 38.2509 10.0156 37.766 10.0156 37.1681V35.5314H6.75962Z" fill="#414042"/>
<path d="M31.885 35.5309H28.6289V37.1678C28.6289 37.7659 29.1138 38.2505 29.7117 38.2505H32.9601C33.5582 38.2505 34.0429 37.7657 34.0429 37.1678V34.5847C33.5052 35.1654 32.7387 35.5309 31.885 35.5309Z" fill="#414042"/>
<path d="M6.75886 35.5313L31.8845 35.5309C33.5106 35.5309 34.8289 34.2126 34.8289 32.5865V27.2371C34.8289 26.471 34.6048 25.7215 34.1839 25.0812L32.631 22.718H6.01236L4.45947 25.0812C4.03862 25.7215 3.81445 26.471 3.81445 27.2371V32.5867C3.81426 34.213 5.13257 35.5313 6.75886 35.5313Z" fill="#377DE2"/>
<path d="M34.8279 27.2371C34.8279 26.471 34.6038 25.7215 34.1829 25.0812L32.63 22.718H32.2936L33.2016 24.0997C33.6225 24.74 33.8467 25.4895 33.8467 26.2556V31.605C33.8467 33.2311 32.5283 34.5494 30.9022 34.5494L5.7766 34.5498C5.2152 34.5498 4.69247 34.3899 4.24609 34.1174C4.76313 34.9642 5.69317 35.5313 6.75807 35.5313L31.8837 35.5309C33.5098 35.5309 34.8281 34.2126 34.8281 32.5865L34.8279 27.2371Z" fill="#2266D3"/>
<path d="M23.6418 31.227H15.0123C14.5667 31.227 14.1769 30.9267 14.0632 30.4958L13.5994 28.7366C13.4353 28.1142 13.9046 27.5049 14.5484 27.5049H24.1056C24.7493 27.5049 25.2188 28.1142 25.0547 28.7366L24.5909 30.4958C24.4772 30.9267 24.0876 31.227 23.6418 31.227Z" fill="#414042"/>
<path d="M32.2992 23.8712L31.7643 22.9184C31.6948 22.7946 31.5639 22.718 31.422 22.718H7.22595C7.08403 22.718 6.95311 22.7946 6.88362 22.9184L6.34872 23.8712C6.05114 24.4012 6.302 25.0716 6.87439 25.2759L10.9555 26.7336C11.1673 26.8094 11.3907 26.848 11.6157 26.848H27.0318C27.2568 26.848 27.4802 26.8094 27.692 26.7336L31.7731 25.2759C32.3459 25.0716 32.5968 24.4012 32.2992 23.8712Z" fill="#2266D3"/>
<path d="M27.3086 28.3265C28.0822 27.5625 29.8483 26.3425 33.2705 26.2823C33.4359 26.2793 33.5861 26.3832 33.6442 26.5383C33.8588 27.1114 34.2064 28.4682 32.8718 28.839C31.6069 29.1904 28.8827 29.0728 27.5591 28.9886C27.2248 28.9672 27.0703 28.5617 27.3086 28.3265Z" fill="white"/>
<path d="M33.6444 26.5383C33.5863 26.3834 33.4361 26.2793 33.2706 26.2823C33.1572 26.2843 33.0502 26.2907 32.9403 26.2952C33.0447 26.9232 32.955 27.6972 31.9965 27.9635C30.952 28.2537 28.9143 28.224 27.4898 28.1575C27.4248 28.2156 27.3635 28.2725 27.3086 28.3267C27.0703 28.5619 27.225 28.9674 27.559 28.9886C28.8829 29.0728 31.6068 29.1906 32.8717 28.839C34.2065 28.4682 33.8589 27.1114 33.6444 26.5383Z" fill="#F1F2F2"/>
<path d="M11.3368 28.3265C10.5632 27.5625 8.79717 26.3425 5.37498 26.2823C5.2095 26.2793 5.05934 26.3832 5.00123 26.5383C4.78669 27.1114 4.43905 28.4682 5.77365 28.839C7.03857 29.1904 9.76274 29.0728 11.0864 28.9886C11.4206 28.9672 11.5751 28.5617 11.3368 28.3265Z" fill="white"/>
<path d="M11.3343 28.327C11.1435 28.1386 10.8914 27.9222 10.5697 27.7024C10.5805 27.9008 10.4392 28.0987 10.2085 28.1134C8.8847 28.1976 6.16073 28.3154 4.89581 27.9639C4.87421 27.958 4.85674 27.9495 4.83594 27.943C4.92957 28.3311 5.19143 28.6784 5.77108 28.8393C7.036 29.1907 9.76017 29.0731 11.0838 28.9889C11.4181 28.9677 11.5726 28.5622 11.3343 28.327Z" fill="#F1F2F2"/>
<path d="M26.5994 13.7505H12.0503C10.4042 13.7505 8.93295 14.7773 8.36527 16.3225L6.01562 22.7178H32.6343L30.2846 16.3225C29.7168 14.7775 28.2455 13.7505 26.5994 13.7505Z" fill="#377DE2"/>
<path d="M7.52523 21.0272L9.18745 16.5799C9.47424 15.8128 10.2072 15.3042 11.0261 15.3042H27.6257C28.4447 15.3042 29.1776 15.8128 29.4644 16.5799L31.1267 21.0272C31.2226 21.2837 31.0328 21.5571 30.759 21.5571H7.89289C7.61906 21.5571 7.42924 21.2837 7.52523 21.0272Z" fill="#F1F2F2"/>
<path d="M20.8628 16.8748C20.6461 16.8748 20.4638 16.6989 20.4638 16.4822C20.4638 16.2655 20.633 16.0896 20.8499 16.0896H20.8628C21.0795 16.0896 21.2554 16.2655 21.2554 16.4822C21.2554 16.6989 21.0797 16.8748 20.8628 16.8748ZM19.2795 16.8748H11.0352C10.8185 16.8748 10.6426 16.6989 10.6426 16.4822C10.6426 16.2655 10.8185 16.0896 11.0352 16.0896H19.2795C19.4962 16.0896 19.6721 16.2655 19.6721 16.4822C19.6721 16.6989 19.4962 16.8748 19.2795 16.8748Z" fill="white"/>
<path d="M31.1267 21.0269L29.4644 16.5797C29.1935 15.8548 28.5242 15.3615 27.7602 15.3091L29.1635 19.064C29.2595 19.3205 29.0697 19.594 28.7959 19.594H8.06072L7.52523 21.0269C7.42924 21.2835 7.61906 21.5569 7.89289 21.5569H30.7588C31.0328 21.5569 31.2224 21.2835 31.1267 21.0269Z" fill="#E6E7E8"/>
<path d="M31.1267 21.0271L29.4644 16.5799C29.2774 16.0795 28.8999 15.6903 28.4331 15.4792C28.4508 15.5183 28.4678 15.5578 28.483 15.5984L30.1452 20.0456C30.2412 20.3022 30.0514 20.5756 29.7775 20.5756H7.69404L7.52523 21.0271C7.42924 21.2837 7.61906 21.5571 7.89289 21.5571H30.7588C31.0328 21.5571 31.2224 21.2837 31.1267 21.0271Z" fill="#D1D3D4"/>
<path d="M28.8703 33.9591H9.77028C9.43815 33.9591 9.25619 33.5724 9.46759 33.3164L10.0164 32.6522C10.2029 32.4264 10.4803 32.2959 10.7731 32.2959H27.8676C28.1603 32.2959 28.4378 32.4266 28.6243 32.6522L29.1732 33.3164C29.3844 33.5726 29.2022 33.9591 28.8703 33.9591Z" fill="#414042"/>
<path d="M31.3723 34.2656C32.0007 34.2656 32.5102 33.7561 32.5102 33.1277C32.5102 32.4992 32.0007 31.9897 31.3723 31.9897C30.7438 31.9897 30.2344 32.4992 30.2344 33.1277C30.2344 33.7561 30.7438 34.2656 31.3723 34.2656Z" fill="#D1D3D4"/>
<path d="M31.3724 33.8208C31.755 33.8208 32.0651 33.5106 32.0651 33.128C32.0651 32.7454 31.755 32.4353 31.3724 32.4353C30.9898 32.4353 30.6797 32.7454 30.6797 33.128C30.6797 33.5106 30.9898 33.8208 31.3724 33.8208Z" fill="white"/>
<path fill-rule="evenodd" clip-rule="evenodd" d="M25.3081 17.8394L24.0178 15.8686L22.7274 13.8978L23.7912 11.8332L27.4483 4.7391C27.815 4.02883 28.6925 3.74825 29.4043 4.11415L34.1105 6.54201C34.8216 6.90629 35.1014 7.78613 34.7363 8.49565L31.0791 15.5897L30.0154 17.6543L27.6606 17.7464L25.3081 17.8394Z" fill="#FD4755"/>
<path fill-rule="evenodd" clip-rule="evenodd" d="M26.0463 16.0228C25.3652 15.6722 25.0978 14.8359 25.4492 14.1564C25.7999 13.4753 26.6361 13.2079 27.3156 13.5593C27.9967 13.9099 28.2641 14.7462 27.9127 15.4257C27.562 16.1067 26.7259 16.3742 26.0463 16.0228Z" fill="#F2FBFF"/>
<path d="M23.1205 19.7081C22.7245 18.8542 23.2179 17.3935 24.002 16.3806C24.508 15.7271 25.4904 14.6065 26.3858 14.4439C26.6255 14.4004 26.855 14.5594 26.8985 14.799C26.942 15.0386 26.7831 15.2681 26.5435 15.3116C26.1204 15.3884 25.3965 16.0199 24.6994 16.9204C23.8569 18.0089 23.7427 19.1626 23.9627 19.4028C24.0316 19.4778 24.3245 19.4662 24.849 19.1265C25.0533 18.9941 25.3264 19.0525 25.4588 19.2569C25.5914 19.4612 25.5328 19.7343 25.3283 19.8667C24.1629 20.6216 23.5657 20.2741 23.3135 19.9997C23.2343 19.9136 23.1703 19.8156 23.1205 19.7081Z" fill="#B1BEEB"/>
<path d="M28.7478 12.1272C28.6364 12.3437 28.3705 12.429 28.154 12.3176C28.0632 12.2709 27.9956 12.1971 27.9558 12.1112C27.9006 11.9921 27.8989 11.8496 27.9636 11.7237L28.1643 11.3339L27.4014 10.9412C27.3108 10.8946 27.2432 10.8208 27.2033 10.7349C27.1481 10.6157 27.1464 10.4732 27.2112 10.3473C27.3226 10.1308 27.5885 10.0456 27.8051 10.1571L28.9576 10.7504C28.9584 10.7508 28.9591 10.751 28.9599 10.7514C28.9607 10.7518 28.9614 10.7523 28.9621 10.7527L29.4315 10.9943C29.5499 11.0554 29.6519 11.0564 29.7434 10.9976C29.856 10.9251 29.9332 10.7754 29.9267 10.6417C29.9215 10.5333 29.8613 10.4511 29.7429 10.3902L29.0012 10.0064L28.8035 9.90444C28.5471 9.77234 28.356 9.57586 28.2464 9.33958C28.1851 9.20724 28.1493 9.06236 28.142 8.90931C28.1206 8.46 28.3512 8.0126 28.7295 7.76948C29.088 7.53906 29.5226 7.52493 29.9218 7.73082L30.0009 7.77154L30.2015 7.3817C30.313 7.16518 30.5789 7.08 30.7954 7.19144C31.012 7.30269 31.0971 7.56868 30.9857 7.78526L30.785 8.17513L31.5479 8.56778C31.7644 8.67916 31.8496 8.94502 31.7381 9.16165C31.6267 9.37814 31.3607 9.46335 31.1442 9.35191L29.9911 8.75839C29.9905 8.75812 29.9899 8.75791 29.9894 8.75762C29.989 8.75745 29.9888 8.75716 29.9884 8.75704L29.5179 8.51487C29.3995 8.45378 29.2976 8.45267 29.2063 8.51142C29.0937 8.58384 29.0165 8.7335 29.0229 8.86735C29.0281 8.97641 29.0885 9.05925 29.2076 9.12068L29.3338 9.18576C29.3342 9.18602 29.3347 9.18615 29.3352 9.18641L29.3934 9.21655L30.019 9.5393C30.0239 9.54184 30.0284 9.54483 30.0331 9.54753L30.1471 9.6065C30.5458 9.81142 30.7869 10.1733 30.8076 10.5991C30.8293 11.0484 30.5989 11.4959 30.2205 11.7393C29.8618 11.97 29.427 11.9843 29.0276 11.7783L28.9484 11.7376L28.7478 12.1272Z" fill="#F2FBFF"/>
</g>
<defs>
<clipPath id="clip0_11686_65">
<rect width="40" height="40" fill="white"/>
</clipPath>
</defs>
</svg>
