<?xml version="1.0" encoding="UTF-8"?>
<svg width="83px" height="38px" viewBox="0 0 83 38" version="1.1" xmlns="http://www.w3.org/2000/svg" xmlns:xlink="http://www.w3.org/1999/xlink">
    <title>E5B3E9DC-962D-40AE-AFE5-91FDB1E91124@1</title>
    <defs>
        <polygon id="path-1" points="0 0 36.3229751 0 36.3229751 38 0 38"></polygon>
    </defs>
    <g id="Page-1" stroke="none" stroke-width="1" fill="none" fill-rule="evenodd">
        <g id="Home-Page" transform="translate(-1295.000000, -17.000000)">
            <g id="Group-18" transform="translate(1295.000000, 17.000000)">
                <path d="M2.08807784,8.55418433 L6.55875539,8.55418433 C6.79358852,8.55418433 6.98394205,8.36456143 6.98394205,8.13039145 L6.98394205,4.30648848 C6.98394205,4.07255671 6.79358852,3.88269559 6.55875539,3.88269559 L2.08807784,3.88269559 C1.85324471,3.88269559 1.66265204,4.07255671 1.66265204,4.30648848 L1.66265204,8.13039145 C1.66265204,8.36456143 1.85324471,8.55418433 2.08807784,8.55418433" id="Fill-1" fill="#0D0DB5"></path>
                <path d="M9.59467904,20.7792393 C9.18431891,21.2652075 8.59125765,21.5081916 7.81549525,21.5081916 C7.06149438,21.5081916 6.46293295,21.2652075 6.01957183,20.7792393 C5.57573243,20.2937475 5.35429101,19.6641328 5.35429101,18.8908715 C5.35429101,18.1402412 5.5704714,17.5273019 6.0028322,17.0520535 C6.43543213,16.5772816 7.02825425,16.3397765 7.78201599,16.3397765 C8.55801752,16.3397765 9.15657895,16.5715643 9.57817855,17.0353781 C9.99906074,17.4994302 10.2102192,18.1178485 10.2102192,18.8908715 C10.2102192,19.6641328 10.0045609,20.2937475 9.59467904,20.7792393 M12.9038652,12.5630411 C11.6402621,11.5913428 9.73290058,11.1051364 7.18345456,11.1051364 L5.08836999,11.1051364 C2.27802484,11.1051364 0,13.3746557 0,16.1742138 L1.09740248,16.1742138 C0.432121655,17.190221 0.0997203819,18.3829871 0.0997203819,19.7522741 C0.0997203819,21.8285971 0.770023093,23.474219 2.1118242,24.6886631 C3.4529079,25.9035837 5.28781075,26.5108058 7.61581535,26.5108058 C9.96582061,26.5108058 11.872943,25.793288 13.336226,24.3572995 C14.799509,22.9217875 15.5312701,20.9779145 15.5312701,18.5263954 C15.5312701,15.8759628 14.6550699,13.8880192 12.9038652,12.5630411" id="Fill-3" fill="#0D0DB5"></path>
                <path d="M8.5734419,8.55418433 L13.0438803,8.55418433 C13.2789526,8.55418433 13.4693061,8.36456143 13.4693061,8.13039145 L13.4693061,4.30648848 C13.4693061,4.07255671 13.2789526,3.88269559 13.0438803,3.88269559 L8.5734419,3.88269559 C8.33860877,3.88269559 8.14801609,4.07255671 8.14801609,4.30648848 L8.14801609,8.13039145 C8.14801609,8.36456143 8.33860877,8.55418433 8.5734419,8.55418433" id="Fill-5" fill="#0D0DB5"></path>
                <path d="M24.1502199,13.4574132 L19.4836887,13.4574132 C19.3029006,13.4574132 19.1563093,13.6034419 19.1563093,13.783536 L19.1563093,22.9326026 C19.1563093,24.9867713 18.8346692,26.4113252 18.1918673,27.2065026 C17.5911536,27.9487953 16.4884901,28.5181404 14.8831594,28.9138234 C14.6961538,28.9597998 14.5859113,29.1522813 14.6468914,29.3342812 L16.1300261,33.7665973 C16.1857419,33.9328747 16.3655734,34.0272097 16.5344046,33.9778982 C19.2598559,33.1815297 21.2533069,31.9844756 22.5152361,30.3869741 C23.8233188,28.7303942 24.4775993,26.3336656 24.4775993,23.1977412 L24.4775993,13.783536 C24.4775993,13.6034419 24.3310079,13.4574132 24.1502199,13.4574132" id="Fill-7" fill="#0D0DB5"></path>
                <path d="M39.7492138,28.2665566 L35.2785362,28.2665566 C35.0437031,28.2665566 34.8533496,28.4561795 34.8533496,28.6903495 L34.8533496,32.5142524 C34.8533496,32.7481842 35.0437031,32.9380453 35.2785362,32.9380453 L39.7492138,32.9380453 C39.9840469,32.9380453 40.1746396,32.7481842 40.1746396,32.5142524 L40.1746396,28.6903495 C40.1746396,28.4561795 39.9840469,28.2665566 39.7492138,28.2665566" id="Fill-9" fill="#0D0DB5"></path>
                <path d="M46.2344822,28.2665566 L41.7640438,28.2665566 C41.5289715,28.2665566 41.338618,28.4561795 41.338618,28.6903495 L41.338618,32.5142524 C41.338618,32.7481842 41.5289715,32.9380453 41.7640438,32.9380453 L46.2344822,32.9380453 C46.4693153,32.9380453 46.659908,32.7481842 46.659908,32.5142524 L46.659908,28.6903495 C46.659908,28.4561795 46.4693153,28.2665566 46.2344822,28.2665566" id="Fill-11" fill="#0D0DB5"></path>
                <path d="M71.2757527,13.4574132 L66.7424211,13.4574132 C66.5616331,13.4574132 66.4148026,13.6034419 66.4148026,13.783536 L66.4148026,19.4872308 C66.4148026,20.6797587 65.9269619,21.2762609 64.9515196,21.2762609 C63.975599,21.2762609 63.4882366,20.6797587 63.4882366,19.4872308 L63.4882366,15.0094147 C63.4882366,14.8293206 63.3416452,14.6832919 63.1608572,14.6832919 L58.4945651,14.6832919 C58.3135379,14.6832919 58.1669466,14.8293206 58.1669466,15.0094147 L58.1669466,19.5203433 C58.1669466,20.6911933 57.6788667,21.2762609 56.7036636,21.2762609 C55.7059815,21.2762609 55.2069013,20.6911933 55.2069013,19.5203433 L55.2069013,16.334631 C55.2069013,16.1545369 55.0605491,16.0085082 54.8795219,16.0085082 L50.2134689,16.0085082 C50.0324418,16.0085082 49.8858504,16.1545369 49.8858504,16.334631 L49.8858504,18.0293261 C49.8858504,19.1117965 49.6971708,19.8738614 49.3205291,20.3155208 C48.94317,20.7574184 48.2561276,20.9780098 47.2584455,20.9780098 L46.9590452,20.9780098 C45.8948829,20.9780098 45.1851225,20.7352639 44.8307205,20.2490575 C44.4756012,19.7635657 44.2986394,18.9903045 44.2986394,17.9299885 L44.2986394,14.8388494 C44.2986394,14.658517 44.152048,14.5124884 43.9710208,14.5124884 L39.3047287,14.5124884 C39.1239407,14.5124884 38.9773493,14.658517 38.9773493,14.8388494 L38.9773493,17.963101 C38.9773493,19.0896421 38.7776694,19.8738614 38.3785488,20.3155208 C37.9794281,20.7574184 37.2919075,20.9780098 36.3167043,20.9780098 L36.0842626,20.9780098 C34.9978604,20.9780098 34.255099,20.6797587 33.8559784,20.0834948 C33.5010982,19.598003 33.3238972,18.6258283 33.3238972,17.1679236 L33.3238972,3.01624282 C33.3238972,2.83614871 33.1773058,2.69012003 32.9962787,2.69012003 L28.3299866,2.69012003 C28.1491985,2.69012003 28.0026072,2.83614871 28.0026072,3.01624282 L28.0026072,17.4992872 C28.0026072,20.0834948 28.3902492,22.0604802 29.166729,23.4297672 C30.2751318,25.3293312 32.2372559,26.2788751 35.0533404,26.2788751 L35.3855025,26.2788751 L36.7163033,26.2788751 L37.0482263,26.2788751 C38.8219099,26.2788751 40.1297535,25.5499227 40.9727135,24.0922562 C41.8591966,25.5499227 43.3449586,26.2788751 45.429282,26.2788751 L46.626644,26.2788751 L47.9567273,26.2788751 C49.7528899,26.2788751 50.9717743,25.6054279 51.6152936,24.2578189 C52.3688162,25.7378781 53.7770975,26.4775503 55.838942,26.4775503 C57.8785466,26.4775503 59.3085895,25.7378781 60.1293098,24.2578189 C60.9940314,25.7378781 62.6455157,26.4775503 65.0847193,26.4775503 C66.9913634,26.4775503 68.5543668,25.9143989 69.7742077,24.7878578 C70.9930921,23.661555 71.6031321,21.9277918 71.6031321,19.5865684 L71.6031321,13.783536 C71.6031321,13.6034419 71.4565408,13.4574132 71.2757527,13.4574132" id="Fill-13" fill="#0D0DB5"></path>
                <g id="Group-17" transform="translate(46.677025, 0.000000)">
                    <mask id="mask-2" fill="white">
                        <use xlink:href="#path-1"></use>
                    </mask>
                    <g id="Clip-16"></g>
                    <path d="M17.2496226,0 C9.97051303,0 3.42770812,4.03282166 0.174958399,10.5245473 C-0.0223301258,10.9180863 -0.0538962899,11.3647482 0.0859992099,11.7823474 C0.22589471,12.1997084 0.520512241,12.5375039 0.915806704,12.7340352 C1.73198335,13.1399616 2.72655666,12.808598 3.13404714,11.9960305 C5.8236278,6.62870197 11.232203,3.29457875 17.2496226,3.29457875 C25.9432312,3.29457875 33.015965,10.339927 33.015965,18.9999285 C33.015965,27.6599301 25.9432312,34.7055165 17.2496226,34.7055165 C12.9429935,34.7055165 8.92069894,33.0079628 5.92382646,29.9253996 C5.28939439,29.273154 4.24029771,29.2562404 3.5852998,29.8882373 C2.9303019,30.5202343 2.91380141,31.5653042 3.54799434,32.2175498 C7.17355959,35.9464031 12.0395316,38.0000953 17.2496226,38.0000953 C27.7666554,38.0000953 36.322999,29.4765937 36.322999,18.9999285 C36.322999,8.52326341 27.7666554,0 17.2496226,0" id="Fill-15" fill="#EC6234" mask="url(#mask-2)"></path>
                </g>
            </g>
        </g>
    </g>
</svg>