<svg width="34" height="26" viewBox="0 0 34 26" fill="none" xmlns="http://www.w3.org/2000/svg">
<g id="Group">
<g id="Group_2">
<path id="Vector" d="M28.2725 18.4933L30.7118 18.4788C31.1767 18.476 31.556 18.8507 31.5588 19.3157L31.5877 24.1593C31.5904 24.6242 31.2158 25.0035 30.7508 25.0063L28.3114 25.0208C27.8465 25.0236 27.4673 24.649 27.4644 24.1839L27.4356 19.3403C27.4327 18.8753 27.8074 18.4962 28.2725 18.4933Z" fill="#2F4859"/>
<path id="Vector_2" d="M3.45029 18.6408L5.88962 18.6262C6.35456 18.6235 6.73377 18.9981 6.7366 19.4632L6.7654 24.3068C6.76815 24.7718 6.39351 25.151 5.92849 25.1538L3.48916 25.1684C3.02422 25.1711 2.64501 24.7965 2.64218 24.3315L2.6133 19.4879C2.61055 19.0228 2.98527 18.6436 3.45029 18.6408Z" fill="#2F4859"/>
<path id="Vector_3" d="M31.0478 6.69626C30.8441 6.71548 30.6891 6.8877 30.6913 7.09228C30.7414 7.49164 30.4855 7.86561 30.0951 7.96349L29.4883 7.96723L29.7999 8.87673C29.7999 8.87673 33.707 8.85326 33.5901 7.56996C33.4996 6.57399 31.8038 6.62376 31.0478 6.69626Z" fill="#2F4859"/>
<path id="Vector_4" d="M2.95111 6.69626C3.15486 6.71548 3.30984 6.8877 3.30768 7.09228C3.25749 7.49164 3.51343 7.86561 3.9038 7.96349L4.51065 7.96723L4.19903 8.87673C4.19903 8.87673 0.29196 8.85326 0.40882 7.56996C0.499378 6.57399 2.19518 6.62376 2.95111 6.69626Z" fill="#2F4859"/>
</g>
<path id="Vector_5" d="M32.7193 14.317C32.6463 13.3625 32.3704 12.4347 31.9099 11.5956L30.263 8.57527C30.263 8.57527 27.3387 1.98384 26.1204 1.4593C24.9425 0.952076 17.4239 0.838046 16.9258 0.831055H16.8982C16.4001 0.844206 8.8835 1.04804 7.71182 1.56925C6.49977 2.10819 3.65277 8.73291 3.65277 8.73291L2.04345 11.7729C1.59324 12.6175 1.32839 13.5483 1.26655 14.5034C1.15335 16.613 1.38066 18.7273 1.93965 20.7647C2.20301 21.7255 3.08054 22.3884 4.07684 22.379L17.0262 22.3041H17.0538L30.0032 22.2271C30.9993 22.2243 31.8687 21.551 32.1206 20.5872C32.6558 18.5429 32.858 16.4256 32.7193 14.317Z" fill="#FE7058"/>
<path id="Vector_6" d="M10.7013 18.2338L23.3202 18.1585C23.546 18.1571 23.7302 18.3391 23.7315 18.5648L23.7443 20.7135C23.7456 20.9393 23.5637 21.1234 23.338 21.1247L10.719 21.2001C10.4932 21.2014 10.3091 21.0194 10.3077 20.7937L10.2949 18.645C10.2936 18.4192 10.4755 18.2351 10.7013 18.2338Z" fill="#3A556A"/>
<path id="Vector_7" d="M26.3566 2.45359C26.2249 2.16668 25.9407 1.98032 25.625 1.97391L16.9964 1.79688H16.9693L8.34324 2.07687C8.02787 2.08719 7.74604 2.2768 7.61778 2.56512L5.14258 8.13261L17.0059 8.06178H17.033L28.8979 7.99095L26.3566 2.45359Z" fill="#2F4859"/>
<path id="Vector_8" d="M29.1653 17.7954C28.3335 17.8003 27.6632 18.4784 27.668 19.3101C27.6728 20.1419 28.3509 20.8122 29.1827 20.8074C30.0144 20.8026 30.6848 20.1245 30.68 19.2927C30.68 19.2925 30.68 19.2922 30.68 19.292C30.6747 18.4606 29.9967 17.7906 29.1653 17.7954Z" fill="#EBF0F3"/>
<path id="Vector_9" d="M4.98323 17.94C4.15148 17.945 3.48128 18.6233 3.48636 19.4551C3.49135 20.2868 4.1697 20.957 5.00146 20.9519C5.83321 20.9469 6.50332 20.2686 6.49833 19.4369C6.49325 18.6052 5.81498 17.935 4.98323 17.94Z" fill="#EBF0F3"/>
<path id="Vector_10" d="M11.3613 14.4141H22.3448V15.7851H11.3613V14.4141Z" fill="#3A556A"/>
<path id="Vector_11" d="M31.2797 12.2584C31.2434 11.9375 30.9538 11.7069 30.633 11.7433C30.608 11.7461 30.5832 11.7505 30.5588 11.7566L25.536 12.9847C25.3851 13.0217 25.2552 13.1173 25.1749 13.2502L24.1798 14.8971C24.0132 15.1731 24.1018 15.5319 24.3778 15.6986C24.4688 15.7536 24.5732 15.7827 24.6796 15.7827H29.5871C29.7019 15.7835 29.8143 15.7507 29.9107 15.6884C31.0684 14.9217 31.4307 13.7274 31.2797 12.2584Z" fill="#E1E6E9"/>
<path id="Vector_12" d="M28.8973 12.7246C28.29 12.7494 27.8179 13.2618 27.8427 13.8691C27.8675 14.4764 28.38 14.9486 28.9873 14.9237C29.5945 14.8989 30.0667 14.3866 30.0419 13.7793C30.0169 13.1721 29.5046 12.6999 28.8973 12.7246Z" fill="#BDBEC1"/>
<path id="Vector_13" d="M26.5671 13.7749C26.1052 13.7934 25.7458 14.183 25.7644 14.6448C25.7829 15.1067 26.1725 15.4661 26.6343 15.4475C27.0962 15.429 27.4556 15.0394 27.437 14.5776C27.437 14.5773 27.437 14.5771 27.437 14.5769C27.4181 14.1153 27.0288 13.7563 26.5671 13.7749Z" fill="#BDBEC1"/>
<path id="Vector_14" d="M2.72 12.2584C2.75629 11.9375 3.04586 11.7069 3.36664 11.7433C3.39161 11.7461 3.41641 11.7505 3.44088 11.7566L8.46369 12.9847C8.61451 13.0217 8.74444 13.1173 8.82476 13.2502L9.81982 14.8971C9.98645 15.1731 9.89789 15.5319 9.62189 15.6986C9.53083 15.7536 9.42646 15.7827 9.32008 15.7827H4.41255C4.29777 15.7835 4.18532 15.7507 4.08894 15.6884C2.93116 14.9217 2.56893 13.7274 2.72 12.2584Z" fill="#E1E6E9"/>
<path id="Vector_15" d="M5.10063 12.7246C5.70791 12.7494 6.18009 13.2618 6.1552 13.8691C6.1304 14.4764 5.61793 14.9486 5.01066 14.9237C4.40347 14.8989 3.93129 14.3866 3.95601 13.7793C3.98106 13.1721 4.49336 12.6999 5.10063 12.7246Z" fill="#BDBEC1"/>
<path id="Vector_16" d="M7.43314 13.7749C7.89501 13.7934 8.25441 14.183 8.23585 14.6448C8.21729 15.1067 7.82775 15.4661 7.36589 15.4475C6.90403 15.429 6.54463 15.0394 6.56319 14.5776C6.56319 14.5773 6.56319 14.5771 6.56319 14.5769C6.58208 14.1153 6.97145 13.7563 7.43314 13.7749Z" fill="#BDBEC1"/>
</g>
</svg>
